<svg width="20" height="20" viewBox="0 0 20 20" fill="none" xmlns="http://www.w3.org/2000/svg">
<path d="M4.2719 2C3.3412 2 3 2.33848 3 3.25244V14.2934C3.00068 14.3977 3.00525 14.4942 3.01371 14.5829C3.03757 14.7834 3.03757 14.9789 3.22747 15.1974C3.24575 15.2234 3.43666 15.3614 3.43666 15.3614C3.53973 15.4109 3.61081 15.4474 3.72709 15.4939L9.37065 17.8217C9.66159 17.9522 9.78649 18.0072 9.99772 17.9992H10.0003C10.214 18.0072 10.3389 17.9527 10.6299 17.8217L16.2704 15.4939C16.3897 15.4474 16.4577 15.4104 16.5633 15.3614C16.5633 15.3614 16.7543 15.2179 16.7725 15.1974C16.9629 14.9789 16.9629 14.7834 16.9863 14.5829C16.9948 14.4942 16.9993 14.3987 17 14.2964V3.25294C17 2.33898 16.6563 2.0005 15.7281 2.0005L4.2719 2ZM13.3138 4.0724H13.7733C14.5405 4.0724 14.9162 4.43988 14.9162 5.20585V6.45829H13.9855V5.25484C13.9855 5.01036 13.8718 4.89836 13.6306 4.89836H13.4722C13.2239 4.89836 13.1102 5.01036 13.1102 5.25484V9.12916C13.1102 9.37365 13.2239 9.48564 13.4722 9.48564H13.6494C13.887 9.48564 14.0008 9.37365 14.0008 9.12916V7.74373H14.9315V9.17366C14.9315 9.93612 14.5512 10.3116 13.7814 10.3116H13.3138C12.5415 10.3116 12.1627 9.93362 12.1627 9.17366V5.21235C12.1627 4.44988 12.541 4.0724 13.3138 4.0724ZM5.06245 4.1254H7.17009V4.97686H6.00889V6.71077H7.12795V7.56023H6.00889V9.40865H7.18634V10.2606H5.06245V4.1254ZM7.64585 4.1254H9.13252C9.90175 4.1254 10.2826 4.50288 10.2826 5.26534V6.89577C10.2826 7.65823 9.90124 8.03371 9.13252 8.03371H8.59584V10.2601H7.64585V4.1254ZM10.7111 4.1254H11.6575V10.2606H10.7111V4.1254ZM8.59279 4.95036V7.21025H8.98426C9.22239 7.21025 9.33613 7.09626 9.33613 6.85077V5.30934C9.33613 5.06485 9.22239 4.94986 8.98426 4.94986L8.59279 4.95036ZM5.98248 11.718H6.12262L6.15461 11.7235H6.20538L6.23178 11.7315H6.25819L6.28205 11.739L6.30845 11.7445L6.32927 11.75L6.37649 11.7605L6.4034 11.768L6.42168 11.7735L6.4425 11.7815L6.4689 11.7895L6.48718 11.797L6.51409 11.8075L6.53795 11.818L6.55877 11.8305L6.58264 11.841L6.60091 11.8535L6.62782 11.867L6.64864 11.8795L6.66946 11.89L6.69028 11.9055L6.71211 11.919L6.73039 11.9345L6.79386 11.982L6.77761 12.0025L6.75933 12.0205L6.74308 12.039L6.7248 12.0595L6.71211 12.0775L6.69586 12.096L6.67758 12.114L6.66134 12.1345L6.64864 12.1525L6.62986 12.174L6.61412 12.192L6.59584 12.2125L6.57959 12.231L6.5669 12.2515L6.54811 12.2695L6.53237 12.291L6.51409 12.309L6.49784 12.327L6.47956 12.3145L6.45875 12.296L6.43691 12.2835L6.39782 12.2575L6.37395 12.244L6.35212 12.2315L6.32826 12.218L6.30998 12.2075L6.28916 12.1975L6.24651 12.1815L6.22011 12.177L6.19929 12.1715L6.17543 12.166L6.14851 12.1605L6.12211 12.158H6.09571L6.06474 12.1525H6.01396L5.98756 12.155H5.96116L5.93475 12.163L5.91394 12.1685L5.89007 12.1765L5.86621 12.181L5.84438 12.1915L5.81797 12.202L5.78142 12.228L5.75958 12.2405L5.7413 12.2565L5.72303 12.269L5.70424 12.285L5.69155 12.303L5.66971 12.321L5.64331 12.3575L5.63062 12.378L5.61995 12.4015L5.60726 12.42L5.59355 12.4435L5.58543 12.467L5.57527 12.4875L5.56715 12.5135L5.56461 12.5395L5.55699 12.5635L5.55141 12.5895V12.6155L5.54887 12.6415V12.7015L5.55141 12.7275V12.748L5.55395 12.774L5.55852 12.7975L5.56664 12.818L5.56918 12.8445L5.5773 12.865L5.58492 12.883L5.59558 12.909L5.60929 12.935L5.61945 12.9535L5.64585 12.995L5.6621 13.0155L5.67479 13.034L5.69662 13.0495L5.70932 13.0675L5.7276 13.0835L5.77025 13.115L5.78852 13.125L5.80934 13.1385L5.83371 13.149L5.86012 13.159L5.8784 13.1695L5.9312 13.185L5.95506 13.1875L5.98147 13.1955L6.00787 13.198H6.1216L6.15359 13.1955H6.17746L6.20437 13.185L6.23077 13.1825L6.25717 13.175L6.27799 13.1695L6.30185 13.159L6.32267 13.149L6.34653 13.1385L6.36278 13.128L6.3836 13.1155V12.8835H6.01041V12.5115H6.85377V13.345L6.83549 13.3575L6.81721 13.373L6.79843 13.3865L6.77761 13.402L6.75679 13.4125L6.73851 13.4285L6.69586 13.4545L6.66946 13.467L6.62732 13.493L6.60041 13.5034L6.57959 13.5134L6.55572 13.5239L6.50292 13.5444L6.4821 13.5549L6.43387 13.5704L6.41 13.5759L6.38614 13.5839L6.35974 13.5919L6.33892 13.5964L6.25971 13.6124L6.23534 13.6149L6.18253 13.6204L6.15359 13.6229L6.12719 13.6249L6.09825 13.6274H5.96623L5.93983 13.6229H5.91343L5.88703 13.6174H5.86316L5.83676 13.6094L5.75958 13.5939L5.73877 13.5859L5.7149 13.5834L5.6885 13.5729L5.64026 13.5574L5.59304 13.5369L5.56664 13.5264L5.54836 13.5159L5.52196 13.506L5.50317 13.49L5.47677 13.48L5.46103 13.4665L5.44021 13.454L5.39756 13.4225L5.37675 13.409L5.3605 13.3935L5.33968 13.3775L5.30515 13.344L5.28687 13.328L5.27113 13.31L5.25235 13.2915L5.23965 13.271L5.22341 13.2555L5.21071 13.234L5.19447 13.2135L5.18177 13.1955L5.16806 13.175L5.15537 13.151L5.14471 13.1305L5.13404 13.107L5.12389 13.0865L5.10307 13.039L5.09495 13.021L5.08429 12.9975L5.0787 12.974L5.07413 12.9535L5.06855 12.9275L5.06042 12.9035L5.05484 12.8775L5.0523 12.857L5.04773 12.831L5.04214 12.7845L5.03656 12.7325V12.5945L5.04214 12.568V12.542L5.05027 12.516V12.49L5.05788 12.4665L5.06601 12.4405L5.07667 12.394L5.08429 12.368L5.09241 12.3445L5.1244 12.274L5.13455 12.2535L5.14521 12.23L5.15892 12.206L5.16908 12.1855L5.18279 12.1675L5.20919 12.1255L5.22493 12.105L5.24118 12.087L5.25387 12.0665L5.2884 12.0325L5.30414 12.014L5.32292 11.996L5.33866 11.978L5.3605 11.962L5.39705 11.9305L5.41787 11.915L5.43971 11.9015L5.45798 11.886L5.4788 11.8725L5.50063 11.8625L5.5245 11.849L5.5509 11.8365L5.56918 11.823L5.59558 11.813L5.61945 11.8025L5.64331 11.79L5.66514 11.7845L5.69155 11.7765L5.71236 11.766L5.73623 11.7615L5.76009 11.7535L5.78649 11.748L5.80833 11.74L5.83473 11.7345H5.86113L5.885 11.727H5.9114L5.9378 11.7215H5.96167L5.98248 11.718ZM14.0988 11.7235H14.2389L14.2709 11.729H14.3211L14.3475 11.7365H14.3765L14.4029 11.7445L14.4501 11.755L14.4765 11.7605L14.5004 11.765L14.5273 11.773L14.5512 11.781L14.572 11.7865L14.5958 11.794L14.6222 11.802L14.6431 11.8125L14.6695 11.8225L14.6938 11.833L14.7177 11.8465L14.736 11.8565L14.7598 11.87L14.7837 11.88L14.8055 11.8935L14.8294 11.909L14.8477 11.9225L14.8903 11.954L14.9111 11.9665L14.8949 11.987L14.8822 12.0085L14.8665 12.0265L14.8502 12.047L14.8375 12.0705L14.8238 12.092L14.8081 12.11L14.7918 12.1305L14.7791 12.152L14.7629 12.1725L14.7502 12.1905L14.7339 12.211L14.7212 12.235L14.705 12.2555L14.6893 12.2735L14.673 12.294L14.6603 12.3155L14.6395 12.2995L14.6151 12.287L14.5969 12.2735L14.576 12.261L14.5522 12.2505L14.5303 12.237L14.5065 12.227L14.4882 12.2165L14.4618 12.2065L14.443 12.196L14.4222 12.188L14.375 12.1725L14.3222 12.1565L14.243 12.141L14.2166 12.1385L14.1683 12.133H14.113L14.084 12.1385L14.0576 12.144L14.0338 12.1495L14.0129 12.1595L13.9942 12.17L13.9733 12.188L13.9576 12.2115L13.9469 12.2355V12.2975L13.9606 12.326L13.9708 12.342L13.9871 12.3575L14.0135 12.371L14.0343 12.3835L14.0581 12.394L14.0845 12.404L14.1191 12.412L14.1373 12.42L14.1592 12.4255L14.1856 12.431L14.2064 12.4385L14.2303 12.444L14.2592 12.452L14.2856 12.46L14.3145 12.4675L14.3435 12.473L14.3674 12.481L14.3963 12.4885L14.4227 12.494L14.4466 12.4995L14.5263 12.523L14.5471 12.531L14.5735 12.539L14.5974 12.549L14.6238 12.5625L14.6766 12.583L14.7004 12.5965L14.7431 12.6225L14.7822 12.651L14.8065 12.6665L14.8248 12.6845L14.8431 12.706L14.8619 12.724L14.8746 12.742L14.8934 12.768L14.9061 12.7865L14.9167 12.8125L14.9269 12.828L14.935 12.854L14.9431 12.8755L14.9487 12.899L14.9589 12.951L14.9614 12.977L14.9639 13.0005V13.063L14.9614 13.0915L14.9558 13.1435L14.9502 13.1695L14.9426 13.193L14.937 13.219L14.9289 13.245L14.9213 13.2685L14.9106 13.287L14.9 13.3105L14.8873 13.331L14.871 13.3495L14.8446 13.391L14.8126 13.4275L14.7944 13.44L14.7735 13.4585L14.7573 13.474L14.7365 13.4895L14.7157 13.4999L14.6948 13.5159L14.6705 13.5284L14.6233 13.5519L14.5969 13.5624L14.573 13.5724L14.5466 13.5804L14.5227 13.5884L14.5009 13.5939L14.4481 13.6039L14.4298 13.6094L14.4034 13.6149H14.377L14.3531 13.6204H14.3267L14.3003 13.6259H14.112L14.0327 13.6179L14.0063 13.6124L13.9825 13.6099L13.9297 13.5999L13.9007 13.5944L13.8769 13.5889L13.8505 13.5809L13.8236 13.5754L13.7997 13.5679L13.7733 13.5599L13.7469 13.5494L13.7261 13.5419L13.6997 13.5339L13.6733 13.5234L13.6545 13.5134L13.6281 13.5054L13.6073 13.492L13.5809 13.482L13.56 13.4685L13.5413 13.456L13.5149 13.4425L13.4966 13.4325L13.4758 13.4165L13.4549 13.404L13.4331 13.388L13.4148 13.3725L13.394 13.3565L13.3752 13.344L13.3544 13.3255L13.3707 13.305L13.3889 13.287L13.4047 13.2685L13.4235 13.248L13.4362 13.23L13.4524 13.2095L13.4707 13.191L13.4864 13.173L13.5052 13.1525L13.5179 13.134L13.5367 13.116L13.5524 13.0955L13.5687 13.077L13.587 13.0565L13.5996 13.0385L13.6184 13.02L13.6367 12.9995L13.655 13.0155L13.6794 13.031L13.6976 13.0465L13.724 13.06L13.7423 13.0735L13.7662 13.089L13.788 13.1025L13.8119 13.1125L13.8302 13.126L13.854 13.1335L13.8804 13.144L13.9023 13.1545L13.9261 13.162L13.9469 13.1725L13.9733 13.1805L13.9972 13.188L14.0236 13.196L14.05 13.1985L14.0744 13.2065L14.1008 13.209H14.1297L14.1536 13.2165H14.2963L14.3201 13.212L14.3465 13.2065L14.3648 13.204L14.3866 13.196L14.4049 13.186L14.4288 13.17L14.4425 13.152L14.4527 13.1315L14.4608 13.1075V13.0475L14.4501 13.024L14.4374 13.0035L14.4212 12.988L14.3973 12.972L14.379 12.9645L14.3552 12.954L14.3288 12.9435L14.2998 12.931L14.281 12.9255L14.2602 12.92L14.2338 12.912L14.2155 12.9075L14.1891 12.8995L14.1627 12.897L14.1358 12.8865L14.1094 12.884L14.0805 12.8765L14.0566 12.871L14.0302 12.863L14.0038 12.8575L13.9774 12.85L13.9535 12.842L13.9271 12.8365L13.9063 12.8285L13.8581 12.813L13.8317 12.8025L13.8053 12.795L13.7525 12.7735L13.7286 12.761L13.7022 12.7475L13.6839 12.735L13.6596 12.7215L13.6413 12.709L13.6174 12.6955L13.5829 12.6615L13.5646 12.646L13.5326 12.6095L13.5189 12.5915L13.5088 12.5735L13.4925 12.5495L13.4849 12.5315L13.4605 12.469L13.456 12.443L13.4504 12.4195V12.396L13.4448 12.37V12.2635L13.4504 12.2115L13.456 12.19L13.4605 12.1665L13.4686 12.146L13.4742 12.12L13.4849 12.102L13.495 12.0755L13.5057 12.055L13.5159 12.029L13.5296 12.011L13.5479 11.9905L13.5616 11.969L13.5824 11.951L13.5981 11.933L13.6144 11.9115L13.6382 11.8935L13.6545 11.88L13.6753 11.8645L13.7174 11.8385L13.7413 11.825L13.7895 11.8015L13.8104 11.794L13.8342 11.786L13.8606 11.7755L13.887 11.768L13.9058 11.7625L13.9297 11.757L13.9505 11.7515L13.9744 11.746L14.0008 11.7405L14.0536 11.736L14.0779 11.7335L14.0988 11.7235ZM7.84438 11.7415H8.32318L8.34501 11.789L8.35517 11.8095L8.36329 11.8355L8.37395 11.859L8.38157 11.8795L8.39528 11.903L8.41102 11.9505L8.42473 11.974L8.44554 12.0205L8.45113 12.041L8.49327 12.135L8.5014 12.1585L8.51206 12.18L8.52475 12.2035L8.53034 12.227L8.54405 12.253L8.54862 12.2765L8.57299 12.323L8.58314 12.3415L8.59381 12.3675L8.60193 12.3935L8.60955 12.4115L8.62325 12.4375L8.63138 12.459L8.64153 12.485L8.64966 12.503L8.66032 12.529L8.68418 12.5755L8.6918 12.599L8.69739 12.623L8.70805 12.6465L8.72074 12.667L8.7314 12.693L8.74207 12.7165L8.74968 12.737L8.77152 12.7845L8.77913 12.808L8.78979 12.8315L8.79792 12.855L8.80807 12.8755L8.82178 12.8995L8.83194 12.923L8.8426 12.9435L8.84818 12.9695L8.869 13.016L8.87966 13.0375L8.88728 13.061L8.90911 13.1075L8.92181 13.1335L8.92739 13.154L8.9411 13.1805L8.94567 13.1985L8.95633 13.2245L8.97004 13.2505L8.9802 13.2685L8.98832 13.2945L8.99898 13.316L9.0066 13.342L9.02031 13.36L9.03605 13.412L9.04671 13.4305L9.05687 13.4565L9.07058 13.477L9.08124 13.503L9.08581 13.5264L9.09393 13.5469L9.1046 13.5704L9.11729 13.5919H8.58873L8.57603 13.5704L8.56791 13.5469L8.55725 13.5234L8.54709 13.4975L8.54151 13.477L8.51967 13.4305L8.51206 13.409L8.49124 13.3625L8.48312 13.342L8.47245 13.316L8.45672 13.2685L8.44605 13.248H7.71084L7.70069 13.2715L7.69256 13.293L7.6819 13.319L7.67174 13.3425L7.66616 13.363L7.6555 13.389L7.64534 13.4095L7.63722 13.433L7.62656 13.4545L7.6164 13.4805L7.60828 13.4984L7.59761 13.5244L7.59 13.5504L7.57933 13.5689L7.57121 13.5949H7.04773L7.05534 13.5709L7.07718 13.5244L7.08479 13.4984L7.09292 13.478L7.10663 13.4545L7.11678 13.431L7.12744 13.4095L7.13303 13.386L7.14318 13.36L7.15689 13.3395L7.16705 13.316L7.1833 13.2685L7.20716 13.222L7.21528 13.1985L7.22544 13.178L7.23356 13.154L7.26555 13.084L7.27621 13.058L7.28383 13.0375L7.29195 13.014L7.30566 12.9925L7.31582 12.9665L7.32394 12.943L7.33206 12.9225L7.34222 12.8965L7.35593 12.878L7.36405 12.852L7.37421 12.8315L7.38233 12.808L7.39299 12.782L7.40569 12.7615L7.41381 12.7355L7.42397 12.717L7.43209 12.691L7.44275 12.665L7.45291 12.647L7.46357 12.621L7.47169 12.5995L7.48185 12.5735L7.48997 12.5555L7.50368 12.5295L7.51384 12.5035L7.5245 12.483L7.53008 12.4595L7.54024 12.4355L7.55395 12.412L7.5641 12.3915L7.56969 12.3655L7.58035 12.342L7.59101 12.3205L7.61183 12.274L7.61945 12.2535L7.64128 12.2015L7.65143 12.183L7.6621 12.157L7.67022 12.1365L7.67784 12.1105L7.6885 12.087L7.70221 12.0665L7.71236 12.0405L7.72049 12.022L7.72861 11.996L7.73877 11.9755L7.75248 11.952L7.7606 11.926L7.76821 11.9045L7.77888 11.8785L7.78903 11.8605L7.80274 11.8345L7.81087 11.8085L7.81848 11.7905L7.82914 11.7645L7.84438 11.7415ZM9.33105 11.755H9.85453L9.87078 11.7755L9.89718 11.8175L9.90988 11.841L9.92358 11.859L9.93628 11.8825L9.94999 11.903L9.96268 11.927L9.97639 11.9475L9.98908 11.9655L10.0028 11.989L10.0155 12.0105L10.0343 12.031L10.0419 12.0515L10.0581 12.075L10.0708 12.0965L10.0871 12.1145L10.0977 12.138L10.1104 12.1585L10.1267 12.18L10.1343 12.2005L10.1531 12.224L10.1922 12.2865L10.2028 12.307L10.2186 12.3275L10.2323 12.348L10.245 12.372L10.2851 12.434L10.2978 12.458L10.3115 12.4785L10.3272 12.458L10.3379 12.4315L10.3536 12.4135L10.3674 12.39L10.38 12.372L10.3907 12.346L10.409 12.3275L10.4227 12.304L10.4334 12.286L10.4461 12.2645L10.4623 12.241L10.475 12.223L10.4887 12.197L10.5014 12.179L10.5176 12.155L10.5278 12.137L10.5415 12.111L10.5542 12.0955L10.5679 12.074L10.5837 12.048L10.5974 12.03L10.6075 12.0065L10.6238 11.988L10.6365 11.962L10.6502 11.9465L10.6659 11.926L10.6796 11.9L10.6923 11.8815L10.706 11.858L10.7187 11.84L10.7324 11.814L10.7482 11.7955L10.7588 11.772L10.7725 11.754H11.3041V13.6134H10.8066V12.5195L10.7939 12.538L10.7776 12.564L10.7649 12.5795L10.7487 12.6L10.7385 12.626L10.7223 12.6445L10.7096 12.6625L10.6933 12.6885L10.6669 12.725L10.6512 12.7455L10.6375 12.7715L10.6217 12.79L10.608 12.808L10.5979 12.834L10.5816 12.852L10.5689 12.8705L10.5527 12.8965L10.54 12.9145L10.5237 12.935L10.511 12.9585L10.5004 12.977L10.4846 12.9975L10.4709 13.021L10.4552 13.039L10.4389 13.0605L10.4288 13.081L10.4151 13.1045L10.3993 13.123L10.3831 13.1435L10.3729 13.1695L10.3542 13.185L10.344 13.2055L10.3277 13.232L10.3151 13.25H10.3044L10.2887 13.2265L10.2749 13.205L10.2622 13.1815L10.2485 13.1635L10.2328 13.14L10.2191 13.1195L10.2034 13.098L10.1896 13.0775L10.1769 13.054L10.1632 13.036L10.145 13.012L10.1343 12.9915L10.1186 12.968L10.1048 12.95L10.0922 12.9265L10.0759 12.905L10.0632 12.879L10.047 12.861L10.0343 12.8375L10.0206 12.816L10.0079 12.7925L9.99162 12.7745L9.97893 12.751L9.96268 12.7305L9.95253 12.709L9.93628 12.6885L9.92358 12.665L9.90734 12.647L9.89464 12.623L9.8784 12.6025L9.86824 12.579L9.84945 12.561L9.8393 12.537L9.82305 12.5165V13.6129H9.33409V11.7715L9.33105 11.755ZM11.6789 11.755H13.1681V12.1745H12.1734V12.474H13.067V12.87H12.1734V13.1875H13.1808V13.6094H11.6814V11.771L11.6789 11.755ZM8.07692 12.325L8.0688 12.3485L8.06118 12.37L8.05052 12.396L8.03986 12.4195L8.03224 12.443L8.01041 12.4895L8.00025 12.5155L7.99213 12.537L7.98401 12.563L7.97385 12.581L7.96573 12.607L7.95506 12.633L7.94491 12.6515L7.93679 12.6775L7.92663 12.698L7.91851 12.724L7.9048 12.7475L7.89921 12.768L7.88906 12.794L7.8784 12.818L7.87027 12.8385L7.86012 12.8645H8.29627L8.28611 12.8385L8.27799 12.815L8.25717 12.7675L8.24905 12.744L8.23839 12.7235L8.23077 12.6975L8.22011 12.674L8.21198 12.6505L8.20183 12.629L8.1937 12.6055L8.18304 12.5795L8.17542 12.559L8.15359 12.5125L8.14902 12.4885L8.13836 12.465L8.1277 12.439L8.12008 12.421L8.09825 12.369L8.09063 12.3455L8.07692 12.325ZM7.30008 15.8068H12.7233L9.95506 16.7053L7.30008 15.8068Z" fill="white"/>
</svg>
