<svg width="20" height="20" viewBox="0 0 20 20" fill="none" xmlns="http://www.w3.org/2000/svg">
<path fill-rule="evenodd" clip-rule="evenodd" d="M18.3335 6.91091C18.3335 9.80758 15.9752 12.1559 13.0669 12.1559C12.5369 12.1559 11.3285 12.0342 10.741 11.5459L10.006 12.2776C9.57354 12.7084 9.69021 12.8351 9.88271 13.0434C9.96271 13.1309 10.056 13.2317 10.1285 13.3759C10.1285 13.3759 10.741 14.2292 10.1285 15.0834C9.76104 15.5709 8.73187 16.2534 7.55687 15.0834L7.31188 15.3267C7.31188 15.3267 8.04604 16.1809 7.43437 17.0351C7.06687 17.5226 6.08688 18.0101 5.22938 17.1567L4.37271 18.0101C3.78438 18.5959 3.06604 18.2542 2.78104 18.0101L2.04521 17.2784C1.35938 16.5951 1.75938 15.8551 2.04521 15.5701L8.41354 9.22841C8.41354 9.22841 7.80104 8.25341 7.80104 6.91175C7.80104 4.01508 10.1594 1.66675 13.0677 1.66675C15.976 1.66675 18.3335 4.01508 18.3335 6.91091ZM13.0677 8.74091C13.5538 8.7418 14.0203 8.54961 14.3648 8.2066C14.7092 7.86358 14.9033 7.39783 14.9044 6.91175C14.9039 6.67099 14.8561 6.43268 14.7635 6.21041C14.671 5.98815 14.5356 5.78629 14.365 5.61636C14.1945 5.44643 13.9921 5.31175 13.7695 5.22003C13.547 5.1283 13.3085 5.08131 13.0677 5.08175C12.827 5.08131 12.5885 5.1283 12.3659 5.22003C12.1433 5.31175 11.9409 5.44643 11.7704 5.61636C11.5998 5.78629 11.4644 5.98815 11.3719 6.21041C11.2793 6.43268 11.2315 6.67099 11.231 6.91175C11.2321 7.39783 11.4262 7.86358 11.7707 8.2066C12.1151 8.54961 12.5816 8.7418 13.0677 8.74091Z" fill="#FFE522"/>
</svg>
