<svg width="20" height="20" viewBox="0 0 20 20" fill="none" xmlns="http://www.w3.org/2000/svg">
<path d="M5.97211 6.544H8.13755C9.11905 6.544 9.96893 6.24533 9.96893 5.15467C9.96893 4.288 9.22262 4.104 8.5057 4.104H6.49125L5.97211 6.544ZM14.547 12.3793H18L14.8838 14.5313L15.3882 17.9227L12.6883 15.876L9.06427 18L10.7587 14.4053C10.7587 14.4053 8.78766 12.3553 8.78966 12.3553C8.65737 12.1807 8.6126 11.7313 8.6126 11.538C8.6126 11.2933 8.62864 11.0453 8.64534 10.782C8.66405 10.4813 8.68409 10.16 8.68409 9.798C8.68409 8.906 8.28989 8.43933 7.32376 8.43933H5.51242L4.72402 12.1227H2L4.16678 2H9.29277C11.1983 2 12.6515 2.468 12.6515 4.624C12.6515 6.14133 11.9032 7.22 10.2516 7.446V7.476C11.0279 7.66 11.3192 8.184 11.3192 9.16067C11.3192 9.55067 11.3072 9.89267 11.2965 10.2147C11.2865 10.5 11.2765 10.7707 11.2765 11.0433C11.2765 11.3933 11.368 11.9647 11.5972 12.3553H11.976L13.9992 8.982L14.547 12.3793ZM13.7232 10.414L12.262 12.85H9.95223L11.3573 14.3093L10.2014 16.7573L12.725 15.2787L14.7134 16.7873L14.3439 14.3L16.4105 12.874H14.1188L13.7232 10.414Z" fill="white"/>
</svg>
