<svg width="20" height="20" viewBox="0 0 20 20" fill="none" xmlns="http://www.w3.org/2000/svg">
<path d="M10 3C10.9193 3 11.8295 3.18106 12.6788 3.53284C13.5281 3.88463 14.2997 4.40024 14.9497 5.05025C15.5998 5.70026 16.1154 6.47194 16.4672 7.32122C16.8189 8.17049 17 9.08075 17 10C17 11.8565 16.2625 13.637 14.9497 14.9497C13.637 16.2625 11.8565 17 10 17C6.78 17 4.085 14.844 3.252 11.911L5.933 13.017C6.02487 13.4654 6.26864 13.8684 6.62318 14.1579C6.97772 14.4474 7.42129 14.6056 7.879 14.606C8.971 14.606 9.86 13.717 9.86 12.625V12.534L12.24 10.833H12.296C13.752 10.833 14.935 9.65 14.935 8.194C14.935 6.738 13.752 5.555 12.296 5.555C10.84 5.555 9.65 6.738 9.65 8.194V8.229L7.991 10.651L7.879 10.644C7.466 10.644 7.081 10.77 6.766 10.987L3 9.44C3.301 5.835 6.311 3 10 3ZM7.396 13.619C7.956 13.85 8.6 13.591 8.831 13.031C9.062 12.471 8.796 11.834 8.25 11.603L7.354 11.232C7.697 11.106 8.082 11.099 8.446 11.253C8.817 11.4 9.104 11.687 9.251 12.058C9.405 12.422 9.405 12.828 9.251 13.192C8.95 13.948 8.061 14.312 7.305 13.997C6.955 13.85 6.689 13.584 6.542 13.269L7.396 13.619ZM14.06 8.194C14.06 9.167 13.269 9.958 12.296 9.958C11.8294 9.95615 11.3825 9.76948 11.0532 9.43887C10.7239 9.10825 10.539 8.66063 10.539 8.194C10.5381 7.96301 10.5829 7.73412 10.6709 7.52053C10.7588 7.30694 10.8882 7.11289 11.0515 6.94955C11.2149 6.78621 11.4089 6.65683 11.6225 6.56886C11.8361 6.48089 12.065 6.43607 12.296 6.437C12.7626 6.437 13.2103 6.62188 13.5409 6.95119C13.8715 7.28049 14.0581 7.72737 14.06 8.194ZM10.98 8.194C10.98 8.922 11.568 9.517 12.303 9.517C13.031 9.517 13.619 8.922 13.619 8.194C13.619 7.466 13.031 6.871 12.303 6.871C11.568 6.871 10.98 7.466 10.98 8.194Z" fill="white"/>
</svg>
