<svg width="20" height="20" viewBox="0 0 20 20" fill="none" xmlns="http://www.w3.org/2000/svg">
<path d="M9.50826 1.66675C4.34159 1.66675 2.10826 6.27508 2.10826 6.27508L2.76659 6.74175C2.76659 6.74175 1.94159 8.33341 1.95826 10.3334C1.95826 14.4501 5.24159 18.3334 10.0583 18.3334C14.4416 18.3334 18.0583 14.7584 18.0583 10.3417C18.0583 4.58341 13.5916 1.66675 9.50826 1.66675ZM9.55826 3.07508C13.5916 3.07508 16.7249 6.33341 16.7249 10.1167C16.7249 14.1251 13.7083 16.9167 10.1916 16.9167C7.60826 16.9167 5.27492 14.9501 5.27492 12.2501C5.27492 10.6834 6.09992 9.58341 7.03326 9.01675L7.16659 9.16675C6.91659 9.36675 6.19159 10.5334 6.19159 11.6667C6.19159 13.8001 7.85826 15.2751 9.95826 15.2751C12.6333 15.2751 14.4166 12.9917 14.4166 10.3417C14.4166 7.25841 11.6916 4.64175 8.41659 4.64175C6.60826 4.64175 5.07492 5.41675 4.19159 6.10841L4.04992 5.98341C5.20826 4.20008 7.20826 3.07508 9.55826 3.07508ZM8.33326 6.02508C10.4416 6.02508 12.4749 7.40841 12.9916 9.37508L12.7999 9.44175C11.8916 8.23341 10.3916 7.23341 8.62492 7.23341C5.36659 7.23341 3.65826 10.1917 3.90826 12.6584L3.71659 12.7334C3.71659 12.7334 3.35826 11.9417 3.35826 11.0001C3.35826 8.27508 5.59159 6.02508 8.33326 6.02508ZM9.73326 9.44175C10.7166 9.44175 11.5083 10.2501 11.5083 11.2001C11.5083 11.9834 11.0083 12.4501 11.0083 12.4501L11.5999 12.8751C11.5999 12.8751 11.0083 13.8084 9.79992 13.8084C8.64159 13.8084 7.60826 12.8667 7.60826 11.6084C7.60826 10.3167 8.72492 9.44175 9.73326 9.44175Z" fill="white"/>
</svg>
