<svg width="20" height="20" viewBox="0 0 20 20" fill="none" xmlns="http://www.w3.org/2000/svg">
<path d="M9.99985 8.18559C12.0348 10.2479 13.4692 12.6658 14.6677 15.3378C13.3855 16.4887 11.7227 17.1241 9.99985 17.1215C8.27697 17.1241 6.61415 16.4887 5.33203 15.3378C6.53049 12.6658 7.96415 10.2479 9.99985 8.18559ZM5.45594 4.79603C6.71556 5.47516 7.89702 6.29019 8.9792 7.22655C6.95891 9.28044 5.50704 11.6466 4.31208 14.2031C3.45624 13.0143 2.99695 11.586 2.99952 10.1212C2.99859 9.10858 3.21779 8.10788 3.64194 7.18839C4.06608 6.2689 4.68504 5.4526 5.45594 4.79603ZM14.5438 4.79603C15.3147 5.4526 15.9336 6.2689 16.3578 7.18839C16.7819 8.10788 17.0011 9.10858 17.0002 10.1212C17.0002 11.6445 16.5137 13.0543 15.6876 14.2024C14.4927 11.6466 13.0408 9.28114 11.0205 7.22655C12.1027 6.29019 13.2841 5.47516 14.5438 4.79603ZM9.99985 3.12086C11.1724 3.12086 12.2778 3.40927 13.2487 3.91889C12.0925 4.59189 11.0044 5.37564 9.99985 6.2591C8.99526 5.37564 7.90719 4.59189 6.751 3.91889C7.75314 3.39317 8.86818 3.11927 9.99985 3.12086Z" fill="white"/>
</svg>
