<svg width="50" height="50" viewBox="0 0 50 50" fill="none" xmlns="http://www.w3.org/2000/svg">
<path d="M24.9998 45.8334C13.4936 45.8334 4.1665 36.5063 4.1665 25C4.1665 13.4938 13.4936 4.16669 24.9998 4.16669C36.5061 4.16669 45.8332 13.4938 45.8332 25C45.8332 36.5063 36.5061 45.8334 24.9998 45.8334ZM20.229 40.9729C18.1736 36.6132 16.9829 31.8963 16.7228 27.0834H8.46234C8.86823 30.2892 10.1962 33.3083 12.285 35.7739C14.3737 38.2395 17.1335 40.0456 20.229 40.9729ZM20.8957 27.0834C21.2103 32.1646 22.6623 36.9375 24.9998 41.15C27.4008 36.8263 28.8032 32.0198 29.104 27.0834H20.8957ZM41.5373 27.0834H33.2769C33.0168 31.8963 31.8261 36.6132 29.7707 40.9729C32.8662 40.0456 35.6259 38.2395 37.7147 35.7739C39.8035 33.3083 41.1314 30.2892 41.5373 27.0834ZM8.46234 22.9167H16.7228C16.9829 18.1037 18.1736 13.3869 20.229 9.0271C17.1335 9.95441 14.3737 11.7605 12.285 14.2262C10.1962 16.6918 8.86823 19.7108 8.46234 22.9167ZM20.8978 22.9167H29.1019C28.8018 17.9804 27.4001 13.1739 24.9998 8.85002C22.5988 13.1737 21.1965 17.9802 20.8957 22.9167M29.7686 9.0271C31.8247 13.3867 33.0161 18.1036 33.2769 22.9167H41.5373C41.1314 19.7108 39.8035 16.6918 37.7147 14.2262C35.6259 11.7605 32.8662 9.95441 29.7707 9.0271" fill="#16DCFF" fill-opacity="0.82"/>
</svg>
