<svg width="50" height="50" viewBox="0 0 50 50" fill="none" xmlns="http://www.w3.org/2000/svg">
<path fill-rule="evenodd" clip-rule="evenodd" d="M17.9688 3.125C17.661 3.125 17.3562 3.18562 17.0718 3.30341C16.7875 3.42119 16.5291 3.59383 16.3115 3.81147C16.0938 4.02911 15.9212 4.28748 15.8034 4.57184C15.6856 4.85619 15.625 5.16096 15.625 5.46875C15.625 5.77654 15.6856 6.08131 15.8034 6.36566C15.9212 6.65002 16.0938 6.90839 16.3115 7.12603C16.5291 7.34367 16.7875 7.51631 17.0718 7.63409C17.3562 7.75188 17.661 7.8125 17.9688 7.8125H32.0312C32.339 7.8125 32.6438 7.75188 32.9282 7.63409C33.2125 7.51631 33.4709 7.34367 33.6885 7.12603C33.9062 6.90839 34.0788 6.65002 34.1966 6.36566C34.3144 6.08131 34.375 5.77654 34.375 5.46875C34.375 5.16096 34.3144 4.85619 34.1966 4.57184C34.0788 4.28748 33.9062 4.02911 33.6885 3.81147C33.4709 3.59383 33.2125 3.42119 32.9282 3.30341C32.6438 3.18562 32.339 3.125 32.0312 3.125H17.9688ZM11.7188 10.9375C11.0971 10.9375 10.501 11.1844 10.0615 11.624C9.62193 12.0635 9.375 12.6596 9.375 13.2812C9.375 13.9029 9.62193 14.499 10.0615 14.9385C10.501 15.3781 11.0971 15.625 11.7188 15.625H38.2812C38.9029 15.625 39.499 15.3781 39.9385 14.9385C40.3781 14.499 40.625 13.9029 40.625 13.2812C40.625 12.6596 40.3781 12.0635 39.9385 11.624C39.499 11.1844 38.9029 10.9375 38.2812 10.9375H11.7188ZM7.8125 23.4375V42.1875H42.1875V23.4375H7.8125ZM6.25 18.75C5.4212 18.75 4.62634 19.0792 4.04029 19.6653C3.45424 20.2513 3.125 21.0462 3.125 21.875V43.75C3.125 44.5788 3.45424 45.3737 4.04029 45.9597C4.62634 46.5458 5.4212 46.875 6.25 46.875H43.75C44.5788 46.875 45.3737 46.5458 45.9597 45.9597C46.5458 45.3737 46.875 44.5788 46.875 43.75V21.875C46.875 21.0462 46.5458 20.2513 45.9597 19.6653C45.3737 19.0792 44.5788 18.75 43.75 18.75H6.25ZM32.125 30.7188C32.3553 30.5042 32.54 30.2454 32.6681 29.9579C32.7962 29.6704 32.865 29.3601 32.8706 29.0454C32.8762 28.7307 32.8183 28.4181 32.7004 28.1263C32.5825 27.8344 32.4071 27.5693 32.1845 27.3468C31.9619 27.1242 31.6968 26.9487 31.405 26.8309C31.1132 26.713 30.8006 26.6551 30.4859 26.6607C30.1712 26.6662 29.8608 26.7351 29.5733 26.8632C29.2858 26.9913 29.0271 27.176 28.8125 27.4063L22.6562 33.5625L21.1875 32.0938C20.9729 31.8635 20.7142 31.6788 20.4267 31.5507C20.1392 31.4226 19.8288 31.3537 19.5141 31.3482C19.1994 31.3426 18.8868 31.4005 18.595 31.5184C18.3032 31.6362 18.0381 31.8117 17.8155 32.0343C17.5929 32.2568 17.4175 32.5219 17.2996 32.8138C17.1817 33.1056 17.1238 33.4182 17.1294 33.7329C17.135 34.0476 17.2038 34.3579 17.3319 34.6454C17.46 34.9329 17.6447 35.1917 17.875 35.4062L21 38.5312C21.4395 38.9702 22.0352 39.2167 22.6562 39.2167C23.2773 39.2167 23.873 38.9702 24.3125 38.5312L32.125 30.7188Z" fill="#16DCFF" fill-opacity="0.82"/>
</svg>
