<svg width="50" height="50" viewBox="0 0 50 50" fill="none" xmlns="http://www.w3.org/2000/svg">
<path d="M15.6248 18.75H4.1665V31.25H15.6248L21.8748 25L15.6248 18.75ZM12.4998 27.0833H8.33317V22.9166H12.4998V27.0833ZM31.2498 15.625V4.16663H18.7498V15.625L24.9998 21.875L31.2498 15.625ZM22.9165 8.33329H27.0832V12.5H22.9165V8.33329ZM18.7498 34.375V45.8333H31.2498V34.375L24.9998 28.125L18.7498 34.375ZM27.0832 41.6666H22.9165V37.5H27.0832V41.6666ZM34.3748 18.75L28.1248 25L34.3748 31.25H45.8332V18.75H34.3748ZM41.6665 27.0833H37.4998V22.9166H41.6665V27.0833Z" fill="#0BC4E5"/>
</svg>
