<svg width="50" height="50" viewBox="0 0 50 50" fill="none" xmlns="http://www.w3.org/2000/svg">
<path d="M24.9998 4.16669C13.5123 4.16669 4.1665 13.5125 4.1665 25V33.6313C4.1665 35.7646 6.03525 37.5 8.33317 37.5H10.4165C10.969 37.5 11.4989 37.2805 11.8896 36.8898C12.2803 36.4991 12.4998 35.9692 12.4998 35.4167V24.7021C12.4998 24.1496 12.2803 23.6197 11.8896 23.229C11.4989 22.8383 10.969 22.6188 10.4165 22.6188H8.52484C9.68317 14.5563 16.6207 8.33335 24.9998 8.33335C33.379 8.33335 40.3165 14.5563 41.4748 22.6188H39.5832C39.0306 22.6188 38.5007 22.8383 38.11 23.229C37.7193 23.6197 37.4998 24.1496 37.4998 24.7021V37.5C37.4998 39.7979 35.6311 41.6667 33.3332 41.6667H29.1665V39.5834H20.8332V45.8334H33.3332C37.929 45.8334 41.6665 42.0959 41.6665 37.5C43.9644 37.5 45.8332 35.7646 45.8332 33.6313V25C45.8332 13.5125 36.4873 4.16669 24.9998 4.16669Z" fill="#16DCFF" fill-opacity="0.82"/>
</svg>
