<svg width="50" height="50" viewBox="0 0 50 50" fill="none" xmlns="http://www.w3.org/2000/svg">
<path d="M8.33317 25C8.33317 20.5125 10.1061 16.4396 12.9894 13.4438C13.2436 13.675 13.4623 13.9688 13.6269 14.3396C14.0519 15.2917 14.0519 16.2729 14.0519 17.1417C14.0519 17.825 14.0519 18.475 14.2707 18.9438C14.5707 19.5854 15.8665 19.8604 17.0103 20.0979L17.0519 20.1084C17.4478 20.1917 17.854 20.275 18.2248 20.3792C19.279 20.6709 20.0957 21.6188 20.7478 22.3792C21.0186 22.6938 21.4207 23.1584 21.6228 23.275C21.7269 23.2 22.0623 22.8354 22.2269 22.2375C22.3561 21.7792 22.3186 21.375 22.1332 21.1542C20.9665 19.7792 21.0311 17.1334 21.3915 16.1563C21.9582 14.6167 23.729 14.7313 25.0248 14.8146H25.0373C25.5165 14.8459 25.9665 14.8771 26.304 14.8334C27.2853 14.7084 27.7519 13.55 28.0436 12.825C28.1373 12.5938 28.2123 12.4063 28.2811 12.3125C28.8332 11.5563 30.4144 10.4542 31.5665 9.6771C33.7136 10.5998 35.6433 11.9627 37.2309 13.6776C38.8185 15.3926 40.0286 17.4215 40.7832 19.6334C42.5428 20.2326 44.1899 21.1219 45.6561 22.2646C44.3165 12.0521 35.579 4.16669 24.9998 4.16669C13.4936 4.16669 4.1665 13.4938 4.1665 25C4.1665 35.5792 12.0519 44.3167 22.2644 45.6563C21.1217 44.1901 20.2324 42.543 19.6332 40.7834C16.3371 39.6623 13.4749 37.5373 11.4483 34.7065C9.4216 31.8758 8.33226 28.4815 8.33317 25ZM35.4165 27.0834C33.2064 27.0834 31.0868 27.9613 29.5239 29.5241C27.9611 31.0869 27.0832 33.2065 27.0832 35.4167C27.0832 37.6268 27.9611 39.7464 29.5239 41.3092C31.0868 42.872 33.2064 43.75 35.4165 43.75C37.6266 43.75 39.7463 42.872 41.3091 41.3092C42.8719 39.7464 43.7498 37.6268 43.7498 35.4167C43.7498 33.2065 42.8719 31.0869 41.3091 29.5241C39.7463 27.9613 37.6266 27.0834 35.4165 27.0834ZM22.9165 35.4167C22.9165 33.7752 23.2398 32.1497 23.868 30.6331C24.4962 29.1166 25.4169 27.7386 26.5777 26.5779C27.7384 25.4171 29.1164 24.4964 30.633 23.8682C32.1495 23.24 33.775 22.9167 35.4165 22.9167C37.058 22.9167 38.6835 23.24 40.2 23.8682C41.7166 24.4964 43.0946 25.4171 44.2553 26.5779C45.4161 27.7386 46.3368 29.1166 46.965 30.6331C47.5932 32.1497 47.9165 33.7752 47.9165 35.4167C47.9165 38.7319 46.5995 41.9113 44.2553 44.2555C41.9111 46.5997 38.7317 47.9167 35.4165 47.9167C32.1013 47.9167 28.9219 46.5997 26.5777 44.2555C24.2335 41.9113 22.9165 38.7319 22.9165 35.4167ZM33.3332 29.1667V37.5H41.6665V33.3334H37.4998V29.1667H33.3332Z" fill="#16DCFF" fill-opacity="0.82"/>
</svg>
