<svg width="30" height="30" viewBox="0 0 30 30" fill="none" xmlns="http://www.w3.org/2000/svg">
<path d="M6.42855 28.9286H12.8571M9.64284 28.9286V24.6429M1.07141 13.9286V22.5001C1.07141 23.0684 1.29718 23.6134 1.69904 24.0153C2.1009 24.4171 2.64595 24.6429 3.21427 24.6429H16.0714C16.6397 24.6429 17.1848 24.4171 17.5866 24.0153C17.9885 23.6134 18.2143 23.0684 18.2143 22.5001V13.9286C18.2143 13.3603 17.9885 12.8153 17.5866 12.4134C17.1848 12.0115 16.6397 11.7858 16.0714 11.7858H3.21427C2.64595 11.7858 2.1009 12.0115 1.69904 12.4134C1.29718 12.8153 1.07141 13.3603 1.07141 13.9286Z" stroke="white" stroke-width="2.14286" stroke-linecap="round" stroke-linejoin="round"/>
<path d="M16.0714 7.50003V6.42861C16.0714 6.14445 16.1843 5.87192 16.3852 5.67099C16.5862 5.47006 16.8587 5.35718 17.1428 5.35718H27.8571C28.1413 5.35718 28.4138 5.47006 28.6147 5.67099C28.8157 5.87192 28.9286 6.14445 28.9286 6.42861V27.8572C28.9286 28.1413 28.8157 28.4139 28.6147 28.6148C28.4138 28.8157 28.1413 28.9286 27.8571 28.9286H19.2857" stroke="white" stroke-width="2.14286" stroke-linecap="round" stroke-linejoin="round"/>
<path d="M22.5 15.0001H28.9286M24.375 10.4465C24.304 10.4465 24.2358 10.4183 24.1856 10.368C24.1354 10.3178 24.1071 10.2497 24.1071 10.1786C24.1071 10.1076 24.1354 10.0395 24.1856 9.98922C24.2358 9.93899 24.304 9.91077 24.375 9.91077C24.446 9.91077 24.5142 9.93899 24.5644 9.98922C24.6146 10.0395 24.6429 10.1076 24.6429 10.1786C24.6429 10.2497 24.6146 10.3178 24.5644 10.368C24.5142 10.4183 24.446 10.4465 24.375 10.4465Z" stroke="white" stroke-width="2.14286" stroke-linecap="round" stroke-linejoin="round"/>
</svg>
